<svg width="32" height="37" viewBox="0 0 32 37" fill="none" xmlns="http://www.w3.org/2000/svg">
<path d="M1 30L4.5 27H30L28 30V33L30 35.5H4.5L2.5 34.5L1 33V30Z" fill="white"/>
<path fill-rule="evenodd" clip-rule="evenodd" d="M5.42254 0C2.42776 0 0 2.42776 0 5.42254V31.941L0.0299603 31.9001C0.305545 34.4294 2.44846 36.3979 5.05114 36.3979H30.084C30.6993 36.3979 31.1982 35.899 31.1982 35.2837V34.7459C31.1982 34.4664 31.0245 34.2159 30.7791 34.0819C30.1151 33.7194 28.8955 32.8402 28.8955 31.2725C28.8955 29.7048 30.1151 28.8256 30.7791 28.463C30.8253 28.4378 30.869 28.4084 30.9094 28.3755C31.0838 28.2337 31.1982 28.0259 31.1982 27.799V1.33707C31.1982 0.598625 30.5996 0 29.8611 0H5.42254ZM5.05114 28.3755H27.761C27.2287 29.1016 26.8156 30.0562 26.8156 31.2725C26.8156 32.5736 27.2883 33.5753 27.8739 34.318H5.05114C3.41016 34.318 2.07988 32.9877 2.07988 31.3468C2.07988 29.7058 3.41016 28.3755 5.05114 28.3755Z" fill="#271F47"/>
<path d="M5.42249 12.9992L16.1933 23.77H5.42249V12.9992Z" fill="#BBD02D"/>
</svg>
